<svg width="50" height="50" viewBox="0 0 50 50" fill="none" xmlns="http://www.w3.org/2000/svg">
<path d="M43.75 39.5833V41.6666H6.25V39.5833L10.4167 35.4166V22.9166C10.4167 16.4583 14.6458 10.7708 20.8333 8.93746V8.33329C20.8333 7.22822 21.2723 6.16842 22.0537 5.38701C22.8351 4.60561 23.8949 4.16663 25 4.16663C26.1051 4.16663 27.1649 4.60561 27.9463 5.38701C28.7277 6.16842 29.1667 7.22822 29.1667 8.33329V8.93746C35.3542 10.7708 39.5833 16.4583 39.5833 22.9166V35.4166L43.75 39.5833ZM29.1667 43.75C29.1667 44.855 28.7277 45.9148 27.9463 46.6962C27.1649 47.4776 26.1051 47.9166 25 47.9166C23.8949 47.9166 22.8351 47.4776 22.0537 46.6962C21.2723 45.9148 20.8333 44.855 20.8333 43.75" fill="white"/>
</svg>
