<svg width="51" height="51" viewBox="0 0 51 51" fill="none" xmlns="http://www.w3.org/2000/svg">
<path d="M37.9563 0.459043C38.1014 0.313533 38.2738 0.198087 38.4636 0.119316C38.6535 0.0405463 38.857 0 39.0625 0C39.268 0 39.4715 0.0405463 39.6614 0.119316C39.8512 0.198087 40.0236 0.313533 40.1688 0.459043L49.5438 9.83404C49.6893 9.97919 49.8047 10.1516 49.8835 10.3414C49.9622 10.5313 50.0028 10.7348 50.0028 10.9403C50.0028 11.1458 49.9622 11.3493 49.8835 11.5391C49.8047 11.729 49.6893 11.9014 49.5438 12.0465L18.2938 43.2965C18.1438 43.4454 17.9652 43.5624 17.7688 43.6403L2.14375 49.8903C1.8598 50.0039 1.54874 50.0318 1.24913 49.9703C0.949514 49.9089 0.674527 49.7608 0.458257 49.5445C0.241986 49.3283 0.0939441 49.0533 0.0324833 48.7537C-0.0289774 48.4541 -0.001154 48.143 0.112504 47.859L6.3625 32.234C6.44041 32.0376 6.55735 31.859 6.70625 31.709L37.9563 0.459043ZM35.0219 7.81529L42.1875 14.9809L46.2281 10.9403L39.0625 3.77467L35.0219 7.81529ZM39.9781 17.1903L32.8125 10.0247L12.5 30.3372V31.2528H14.0625C14.4769 31.2528 14.8743 31.4174 15.1674 31.7104C15.4604 32.0035 15.625 32.4009 15.625 32.8153V34.3778H17.1875C17.6019 34.3778 17.9993 34.5424 18.2924 34.8354C18.5854 35.1285 18.75 35.5259 18.75 35.9403V37.5028H19.6656L39.9781 17.1903ZM9.47501 33.3622L9.14375 33.6934L4.36875 45.634L16.3094 40.859L16.6406 40.5278C16.3426 40.4164 16.0856 40.2167 15.9041 39.9554C15.7226 39.694 15.6252 39.3835 15.625 39.0653V37.5028H14.0625C13.6481 37.5028 13.2507 37.3382 12.9577 37.0451C12.6646 36.7521 12.5 36.3547 12.5 35.9403V34.3778H10.9375C10.6193 34.3776 10.3088 34.2802 10.0474 34.0987C9.78608 33.9172 9.58637 33.6602 9.47501 33.3622Z" fill="#605DCC"/>
</svg>
