<svg width="50" height="50" viewBox="0 0 50 50" fill="none" xmlns="http://www.w3.org/2000/svg">
<path d="M25 32.2916C23.0662 32.2916 21.2115 31.5234 19.844 30.1559C18.4766 28.7885 17.7084 26.9338 17.7084 25C17.7084 23.0661 18.4766 21.2114 19.844 19.844C21.2115 18.4765 23.0662 17.7083 25 17.7083C26.9339 17.7083 28.7886 18.4765 30.156 19.844C31.5235 21.2114 32.2917 23.0661 32.2917 25C32.2917 26.9338 31.5235 28.7885 30.156 30.1559C28.7886 31.5234 26.9339 32.2916 25 32.2916ZM40.4792 27.0208C40.5625 26.3541 40.625 25.6875 40.625 25C40.625 24.3125 40.5625 23.625 40.4792 22.9166L44.875 19.5208C45.2709 19.2083 45.375 18.6458 45.125 18.1875L40.9584 10.9791C40.7084 10.5208 40.1459 10.3333 39.6875 10.5208L34.5 12.6041C33.4167 11.7916 32.2917 11.0833 30.9792 10.5625L30.2084 5.04163C30.166 4.79625 30.0382 4.57377 29.8476 4.41361C29.6569 4.25345 29.4157 4.16596 29.1667 4.16663H20.8334C20.3125 4.16663 19.875 4.54163 19.7917 5.04163L19.0209 10.5625C17.7084 11.0833 16.5834 11.7916 15.5 12.6041L10.3125 10.5208C9.8542 10.3333 9.2917 10.5208 9.0417 10.9791L4.87503 18.1875C4.6042 18.6458 4.7292 19.2083 5.12503 19.5208L9.52087 22.9166C9.43753 23.625 9.37503 24.3125 9.37503 25C9.37503 25.6875 9.43753 26.3541 9.52087 27.0208L5.12503 30.4791C4.7292 30.7916 4.6042 31.3541 4.87503 31.8125L9.0417 39.0208C9.2917 39.4791 9.8542 39.6458 10.3125 39.4791L15.5 37.375C16.5834 38.2083 17.7084 38.9166 19.0209 39.4375L19.7917 44.9583C19.875 45.4583 20.3125 45.8333 20.8334 45.8333H29.1667C29.6875 45.8333 30.125 45.4583 30.2084 44.9583L30.9792 39.4375C32.2917 38.8958 33.4167 38.2083 34.5 37.375L39.6875 39.4791C40.1459 39.6458 40.7084 39.4791 40.9584 39.0208L45.125 31.8125C45.375 31.3541 45.2709 30.7916 44.875 30.4791L40.4792 27.0208Z" fill="white"/>
</svg>
