<svg width="50" height="50" viewBox="0 0 50 50" fill="none" xmlns="http://www.w3.org/2000/svg">
<path d="M35.4166 8.33337H14.5833C11.8206 8.33337 9.1711 9.43084 7.2176 11.3843C5.26409 13.3378 4.16663 15.9874 4.16663 18.75V41.6667H41.6666C42.7717 41.6667 43.8315 41.2277 44.6129 40.4463C45.3943 39.6649 45.8333 38.6051 45.8333 37.5V18.75C45.8333 15.9874 44.7358 13.3378 42.7823 11.3843C40.8288 9.43084 38.1793 8.33337 35.4166 8.33337ZM20.8333 37.5H8.33329V18.75C8.33329 17.0924 8.99177 15.5027 10.1639 14.3306C11.336 13.1585 12.9257 12.5 14.5833 12.5C16.2409 12.5 17.8306 13.1585 19.0027 14.3306C20.1748 15.5027 20.8333 17.0924 20.8333 18.75V37.5ZM39.5833 31.25H35.4166V27.0834H27.0833V22.9167H39.5833V31.25ZM18.75 22.9167H10.4166V18.75H18.75V22.9167Z" fill="white"/>
</svg>
