<svg width="50" height="50" viewBox="0 0 50 50" fill="none" xmlns="http://www.w3.org/2000/svg">
<path d="M20.5417 7C24.1331 7 27.5775 8.42671 30.1171 10.9663C32.6566 13.5058 34.0833 16.9502 34.0833 20.5417C34.0833 23.8958 32.8542 26.9792 30.8333 29.3542L31.3958 29.9167H33.0417L43.4583 40.3333L40.3333 43.4583L29.9167 33.0417V31.3958L29.3542 30.8333C26.897 32.9308 23.7723 34.0831 20.5417 34.0833C16.9502 34.0833 13.5058 32.6566 10.9663 30.1171C8.42671 27.5775 7 24.1331 7 20.5417C7 16.9502 8.42671 13.5058 10.9663 10.9663C13.5058 8.42671 16.9502 7 20.5417 7ZM20.5417 11.1667C15.3333 11.1667 11.1667 15.3333 11.1667 20.5417C11.1667 25.75 15.3333 29.9167 20.5417 29.9167C25.75 29.9167 29.9167 25.75 29.9167 20.5417C29.9167 15.3333 25.75 11.1667 20.5417 11.1667Z" fill="white"/>
</svg>
